<mxfile host="app.diagrams.net" modified="2023-01-08T09:53:41.954Z" agent="5.0 (X11)" etag="NzjaTk60a6PDPFQyfoNb" version="20.0.1" type="github">
  <diagram id="kOwk3lxXg-t5IkHsZeF5" name="Page-1">
    <mxGraphModel dx="1386" dy="712" grid="1" gridSize="10" guides="1" tooltips="1" connect="1" arrows="1" fold="1" page="1" pageScale="1" pageWidth="850" pageHeight="1100" math="0" shadow="0">
      <root>
        <mxCell id="0" />
        <mxCell id="1" parent="0" />
        <mxCell id="tNIbMaEOjEEO7-ybNEVT-3" style="edgeStyle=orthogonalEdgeStyle;rounded=0;orthogonalLoop=1;jettySize=auto;html=1;entryX=0.5;entryY=0;entryDx=0;entryDy=0;" edge="1" parent="1" source="tNIbMaEOjEEO7-ybNEVT-1" target="tNIbMaEOjEEO7-ybNEVT-2">
          <mxGeometry relative="1" as="geometry" />
        </mxCell>
        <mxCell id="tNIbMaEOjEEO7-ybNEVT-1" value="DBImp::Recover()" style="strokeWidth=2;html=1;shape=mxgraph.flowchart.start_1;whiteSpace=wrap;" vertex="1" parent="1">
          <mxGeometry x="320" y="40" width="120" height="70" as="geometry" />
        </mxCell>
        <mxCell id="tNIbMaEOjEEO7-ybNEVT-6" style="edgeStyle=orthogonalEdgeStyle;rounded=0;orthogonalLoop=1;jettySize=auto;html=1;" edge="1" parent="1" source="tNIbMaEOjEEO7-ybNEVT-2" target="tNIbMaEOjEEO7-ybNEVT-5">
          <mxGeometry relative="1" as="geometry" />
        </mxCell>
        <mxCell id="tNIbMaEOjEEO7-ybNEVT-2" value="Env::CreateDir" style="rounded=1;whiteSpace=wrap;html=1;absoluteArcSize=1;arcSize=14;strokeWidth=2;" vertex="1" parent="1">
          <mxGeometry x="281.25" y="160" width="197.5" height="40" as="geometry" />
        </mxCell>
        <mxCell id="tNIbMaEOjEEO7-ybNEVT-8" style="edgeStyle=orthogonalEdgeStyle;rounded=0;orthogonalLoop=1;jettySize=auto;html=1;" edge="1" parent="1" source="tNIbMaEOjEEO7-ybNEVT-5" target="tNIbMaEOjEEO7-ybNEVT-7">
          <mxGeometry relative="1" as="geometry" />
        </mxCell>
        <mxCell id="tNIbMaEOjEEO7-ybNEVT-5" value="Env::LockFile()" style="rounded=1;whiteSpace=wrap;html=1;absoluteArcSize=1;arcSize=14;strokeWidth=2;" vertex="1" parent="1">
          <mxGeometry x="281.25" y="240" width="197.5" height="40" as="geometry" />
        </mxCell>
        <mxCell id="tNIbMaEOjEEO7-ybNEVT-11" style="edgeStyle=orthogonalEdgeStyle;rounded=0;orthogonalLoop=1;jettySize=auto;html=1;" edge="1" parent="1" source="tNIbMaEOjEEO7-ybNEVT-7" target="tNIbMaEOjEEO7-ybNEVT-10">
          <mxGeometry relative="1" as="geometry" />
        </mxCell>
        <mxCell id="tNIbMaEOjEEO7-ybNEVT-30" style="edgeStyle=orthogonalEdgeStyle;rounded=0;orthogonalLoop=1;jettySize=auto;html=1;" edge="1" parent="1" source="tNIbMaEOjEEO7-ybNEVT-7" target="tNIbMaEOjEEO7-ybNEVT-9">
          <mxGeometry relative="1" as="geometry" />
        </mxCell>
        <mxCell id="tNIbMaEOjEEO7-ybNEVT-7" value="VersionSet::Recover()" style="rounded=1;whiteSpace=wrap;html=1;absoluteArcSize=1;arcSize=14;strokeWidth=2;" vertex="1" parent="1">
          <mxGeometry x="281.25" y="320" width="197.5" height="40" as="geometry" />
        </mxCell>
        <mxCell id="tNIbMaEOjEEO7-ybNEVT-34" style="edgeStyle=orthogonalEdgeStyle;rounded=0;orthogonalLoop=1;jettySize=auto;html=1;entryX=0.5;entryY=0;entryDx=0;entryDy=0;" edge="1" parent="1" source="tNIbMaEOjEEO7-ybNEVT-9" target="tNIbMaEOjEEO7-ybNEVT-33">
          <mxGeometry relative="1" as="geometry" />
        </mxCell>
        <mxCell id="tNIbMaEOjEEO7-ybNEVT-9" value="DBImpl::RecoverLogFile" style="rounded=1;whiteSpace=wrap;html=1;absoluteArcSize=1;arcSize=14;strokeWidth=2;" vertex="1" parent="1">
          <mxGeometry x="281.25" y="400" width="197.5" height="40" as="geometry" />
        </mxCell>
        <mxCell id="tNIbMaEOjEEO7-ybNEVT-16" style="edgeStyle=orthogonalEdgeStyle;rounded=0;orthogonalLoop=1;jettySize=auto;html=1;entryX=0.5;entryY=0;entryDx=0;entryDy=0;" edge="1" parent="1" source="tNIbMaEOjEEO7-ybNEVT-10" target="tNIbMaEOjEEO7-ybNEVT-12">
          <mxGeometry relative="1" as="geometry" />
        </mxCell>
        <mxCell id="tNIbMaEOjEEO7-ybNEVT-10" value="VersionSet::DecodeFrom()" style="rounded=1;whiteSpace=wrap;html=1;absoluteArcSize=1;arcSize=14;strokeWidth=2;" vertex="1" parent="1">
          <mxGeometry x="680" y="400" width="197.5" height="40" as="geometry" />
        </mxCell>
        <mxCell id="tNIbMaEOjEEO7-ybNEVT-17" style="edgeStyle=orthogonalEdgeStyle;rounded=0;orthogonalLoop=1;jettySize=auto;html=1;entryX=0.5;entryY=0;entryDx=0;entryDy=0;" edge="1" parent="1" source="tNIbMaEOjEEO7-ybNEVT-12" target="tNIbMaEOjEEO7-ybNEVT-15">
          <mxGeometry relative="1" as="geometry" />
        </mxCell>
        <mxCell id="tNIbMaEOjEEO7-ybNEVT-12" value="VersionSet::Builder::Apply()" style="rounded=1;whiteSpace=wrap;html=1;absoluteArcSize=1;arcSize=14;strokeWidth=2;" vertex="1" parent="1">
          <mxGeometry x="680" y="480" width="197.5" height="40" as="geometry" />
        </mxCell>
        <mxCell id="tNIbMaEOjEEO7-ybNEVT-19" style="edgeStyle=orthogonalEdgeStyle;rounded=0;orthogonalLoop=1;jettySize=auto;html=1;entryX=0.5;entryY=0;entryDx=0;entryDy=0;" edge="1" parent="1" source="tNIbMaEOjEEO7-ybNEVT-15" target="tNIbMaEOjEEO7-ybNEVT-18">
          <mxGeometry relative="1" as="geometry" />
        </mxCell>
        <mxCell id="tNIbMaEOjEEO7-ybNEVT-26" style="edgeStyle=orthogonalEdgeStyle;rounded=0;orthogonalLoop=1;jettySize=auto;html=1;entryX=0.5;entryY=0;entryDx=0;entryDy=0;" edge="1" parent="1" source="tNIbMaEOjEEO7-ybNEVT-15" target="tNIbMaEOjEEO7-ybNEVT-24">
          <mxGeometry relative="1" as="geometry" />
        </mxCell>
        <mxCell id="tNIbMaEOjEEO7-ybNEVT-15" value="VersionSet::Builder::SaveTo()" style="rounded=1;whiteSpace=wrap;html=1;absoluteArcSize=1;arcSize=14;strokeWidth=2;" vertex="1" parent="1">
          <mxGeometry x="680" y="560" width="197.5" height="40" as="geometry" />
        </mxCell>
        <mxCell id="tNIbMaEOjEEO7-ybNEVT-22" style="edgeStyle=orthogonalEdgeStyle;rounded=0;orthogonalLoop=1;jettySize=auto;html=1;entryX=0.5;entryY=0;entryDx=0;entryDy=0;" edge="1" parent="1" source="tNIbMaEOjEEO7-ybNEVT-18" target="tNIbMaEOjEEO7-ybNEVT-20">
          <mxGeometry relative="1" as="geometry" />
        </mxCell>
        <mxCell id="tNIbMaEOjEEO7-ybNEVT-18" value="VersionSet::Finalize()" style="rounded=1;whiteSpace=wrap;html=1;absoluteArcSize=1;arcSize=14;strokeWidth=2;" vertex="1" parent="1">
          <mxGeometry x="680" y="640" width="197.5" height="40" as="geometry" />
        </mxCell>
        <mxCell id="tNIbMaEOjEEO7-ybNEVT-23" style="edgeStyle=orthogonalEdgeStyle;rounded=0;orthogonalLoop=1;jettySize=auto;html=1;entryX=0.5;entryY=0;entryDx=0;entryDy=0;" edge="1" parent="1" source="tNIbMaEOjEEO7-ybNEVT-20" target="tNIbMaEOjEEO7-ybNEVT-21">
          <mxGeometry relative="1" as="geometry" />
        </mxCell>
        <mxCell id="tNIbMaEOjEEO7-ybNEVT-20" value="VersionSet::AppendVersion()" style="rounded=1;whiteSpace=wrap;html=1;absoluteArcSize=1;arcSize=14;strokeWidth=2;" vertex="1" parent="1">
          <mxGeometry x="680" y="720" width="197.5" height="40" as="geometry" />
        </mxCell>
        <mxCell id="tNIbMaEOjEEO7-ybNEVT-21" value="VersionSet::ReuseManifest()" style="rounded=1;whiteSpace=wrap;html=1;absoluteArcSize=1;arcSize=14;strokeWidth=2;" vertex="1" parent="1">
          <mxGeometry x="680" y="800" width="197.5" height="40" as="geometry" />
        </mxCell>
        <mxCell id="tNIbMaEOjEEO7-ybNEVT-29" style="edgeStyle=orthogonalEdgeStyle;rounded=0;orthogonalLoop=1;jettySize=auto;html=1;" edge="1" parent="1" source="tNIbMaEOjEEO7-ybNEVT-24" target="tNIbMaEOjEEO7-ybNEVT-27">
          <mxGeometry relative="1" as="geometry" />
        </mxCell>
        <mxCell id="tNIbMaEOjEEO7-ybNEVT-24" value="VersionSet::Builder::MaybeAddFile()" style="rounded=1;whiteSpace=wrap;html=1;absoluteArcSize=1;arcSize=14;strokeWidth=2;" vertex="1" parent="1">
          <mxGeometry x="1000" y="640" width="240" height="40" as="geometry" />
        </mxCell>
        <mxCell id="tNIbMaEOjEEO7-ybNEVT-27" value="VersionSet::AppendVersion()" style="rounded=1;whiteSpace=wrap;html=1;absoluteArcSize=1;arcSize=14;strokeWidth=2;" vertex="1" parent="1">
          <mxGeometry x="1000" y="720" width="240" height="40" as="geometry" />
        </mxCell>
        <mxCell id="tNIbMaEOjEEO7-ybNEVT-33" value="WriteBatchInternal::InsertInto" style="rounded=1;whiteSpace=wrap;html=1;absoluteArcSize=1;arcSize=14;strokeWidth=2;" vertex="1" parent="1">
          <mxGeometry x="281.25" y="480" width="197.5" height="40" as="geometry" />
        </mxCell>
      </root>
    </mxGraphModel>
  </diagram>
</mxfile>
